<svg xmlns="http://www.w3.org/2000/svg" viewBox="0 0 32 32" width="32" height="32">
  <defs>
    <linearGradient id="gold" x1="0%" y1="0%" x2="100%" y2="100%">
      <stop offset="0%" stop-color="#FDF6C7" />
      <stop offset="50%" stop-color="#D4AF37" />
      <stop offset="100%" stop-color="#996515" />
    </linearGradient>
  </defs>
  <!-- Background circle representing a star-studded universe -->
  <circle cx="16" cy="16" r="15" fill="#0D1117" stroke="url(#gold)" stroke-width="1.5"/>
  <!-- Constellation/Spark connections -->
  <path d="M 6 16 L 26 16 M 16 6 L 16 26" stroke="#ffffff" stroke-width="0.5" opacity="0.15" />
  <!-- Graduation Cap -->
  <path d="M 16 9 L 26 14 L 16 19 L 6 14 Z" fill="url(#gold)"/>
  <path d="M 10 17 L 10 21.5 C 10 23.5, 22 23.5, 22 21.5 L 22 17 L 16 19.8 Z" fill="url(#gold)" opacity="0.85"/>
  <!-- Tassel -->
  <path d="M 23 15.5 L 23 20 L 24 20 L 24 21.5 L 22 21.5 L 22 20 L 23 20" fill="url(#gold)"/>
  <!-- Small spark/star near graduation cap -->
  <path d="M 16 4.5 L 16.5 5.5 L 17.5 6 L 16.5 6.5 L 16 7.5 L 15.5 6.5 L 14.5 6 L 15.5 5.5 Z" fill="#ffffff" />
</svg>
